<svg xmlns="http://www.w3.org/2000/svg" version="1.1" xlink="http://www.w3.org/1999/xlink" xmlns:svgjs="http://svgjs.com/svgjs" width="100%" height="100%" viewBox="4.999401092529297 6.572999954223633 90.0006103515625 87.427001953125"><g fill="#b66c10"><path d="M50.299 6.573C40.379 16.97 34.043 32.63 33.966 50.181 33.89 67.732 40.088 83.518 49.918 94c-2.85-15.867-.277-33.22 8.136-47.2 2.137-3.551 4.54-6.7 7.144-9.43C62.982 25.116 57.655 14.402 50.3 6.573z" color="#000"></path><path d="M6.181 24.14c-2.92 15.853-.477 33.146 7.875 47.163 8.351 14.017 20.351 21.873 33.206 22.693-9.876-10.44-15.602-26.198-15.602-43.75 0-4.49.406-8.828 1.181-13.018-7.634-8.035-17.058-12.488-26.66-13.089zm87.775.413C60.111 30.71 47.4 65.07 52.304 93.998 86.35 87.84 98.923 53.663 93.956 24.553z" color="#000"></path></g></svg> 